<svg width="16" height="12" viewBox="0 0 16 12" fill="none" xmlns="http://www.w3.org/2000/svg">
<path d="M15.2675 2.32132C15.093 1.66437 14.5789 1.14698 13.9262 0.971399C12.7432 0.652344 7.99926 0.652344 7.99926 0.652344C7.99926 0.652344 3.25537 0.652344 2.07228 0.971399C1.41959 1.14701 0.905535 1.66437 0.731063 2.32132C0.414062 3.51207 0.414062 5.99645 0.414062 5.99645C0.414062 5.99645 0.414062 8.48084 0.731063 9.67159C0.905535 10.3285 1.41959 10.8244 2.07228 11C3.25537 11.319 7.99926 11.319 7.99926 11.319C7.99926 11.319 12.7431 11.319 13.9262 11C14.5789 10.8244 15.093 10.3285 15.2675 9.67159C15.5845 8.48084 15.5845 5.99645 15.5845 5.99645C15.5845 5.99645 15.5845 3.51207 15.2675 2.32132ZM6.44773 8.25209V3.74082L10.4127 5.99651L6.44773 8.25209Z" fill="white"/>
</svg>
